<svg width="24" height="24" viewBox="0 0 24 24" fill="none" xmlns="http://www.w3.org/2000/svg">
<path fill-rule="evenodd" clip-rule="evenodd" d="M6.77355 6.4L7.58591 20.0475C7.61106 20.4702 7.96113 20.8 8.38449 20.8H15.6155C16.0389 20.8 16.3889 20.4702 16.4141 20.0475L17.2264 6.4L6.77355 6.4ZM18.4286 6.4L17.612 20.1188C17.5491 21.1754 16.6739 22 15.6155 22H8.38449C7.32608 22 6.45092 21.1754 6.38803 20.1188L5.57143 6.4H3.5V5.7C3.5 5.42386 3.72386 5.2 4 5.2L20 5.2C20.2761 5.2 20.5 5.42386 20.5 5.7V6.4H18.4286ZM14 3.00003C14.2761 3.00003 14.5 3.22389 14.5 3.50003V4.20003L9.5 4.20003V3.50003C9.5 3.22389 9.72386 3.00003 10 3.00003L14 3.00003ZM9.5 9H10.7L11.2 18H10L9.5 9ZM14.5 9H13.3L12.8 18H14L14.5 9Z" fill="#599596"/>
</svg>
