<svg width="24" height="24" viewBox="0 0 24 24" fill="none" xmlns="http://www.w3.org/2000/svg">
<path fill-rule="evenodd" clip-rule="evenodd" d="M20.5662 2.74609C20.3714 2.55131 20.0557 2.55131 19.8609 2.74609L10.3514 12.2556L9.03941 14.5523C8.98735 14.6434 8.98684 14.7552 9.03807 14.8468C9.11874 14.991 9.30107 15.0426 9.44531 14.9619L11.7619 13.6664L21.2716 4.15676C21.4663 3.96199 21.4663 3.6462 21.2716 3.45142L20.5662 2.74609ZM14 4.20001V3.00001L4 3.00001C3.44772 3.00001 3 3.44772 3 4.00001L3 20C3 20.5523 3.44772 21 4 21H20C20.5523 21 21 20.5523 21 20V10H19.8V19.8H4.2L4.2 4.20001L14 4.20001Z" fill="#599596"/>
</svg>
