<svg width="114" height="114" viewBox="0 0 114 114" fill="none" xmlns="http://www.w3.org/2000/svg">
<g id="Logo_icons 1">
<g clip-path="url(#clip0_4483_6893)">
<path id="Vector" d="M91.0545 0H22.9455C10.273 0 0 10.273 0 22.9455V91.0545C0 103.727 10.273 114 22.9455 114H91.0545C103.727 114 114 103.727 114 91.0545V22.9455C114 10.273 103.727 0 91.0545 0Z" fill="url(#paint0_linear_4483_6893)"/>
<path id="Vector_2" d="M47.9627 91.5999C48.6536 91.1272 49.3082 90.5817 49.8173 89.9272C51.2355 88.1454 51.6355 85.8181 51.9991 83.5636C52.5082 80.3272 53.0173 77.0545 53.5264 73.8181C53.8536 71.7817 54.1809 69.6726 55.3082 67.9272C56.8355 65.5636 59.49 64.2545 61.89 63.0181C63.3809 62.2545 64.9082 61.5999 66.4718 61.1272C67.09 60.9454 67.7445 60.8726 68.1445 61.5636C68.29 61.8545 68.3627 62.1817 68.29 62.509L66.2536 77.6363C66.2173 77.9999 66.2536 78.3636 66.3264 78.6908C66.8718 80.2908 68.9082 79.9636 70.29 79.3817C72.5445 78.509 74.7627 77.5272 76.9082 76.509C78.7991 75.5999 80.7991 74.5454 81.7809 72.6908C82.5445 71.2726 82.5809 69.5999 82.5809 67.9999C82.69 60.8363 82.69 53.6363 82.5809 46.4726C82.5809 46.109 82.5445 45.7454 82.4355 45.4181C81.7445 42.8363 79.0536 43.1272 77.0173 43.6726C70.8718 45.309 68.2536 46.5454 59.3445 50.6545C58.8355 50.8726 58.29 51.0908 57.7809 50.8726C56.8718 50.4363 56.9809 49.4908 57.09 48.7272C57.49 46.2908 57.89 43.8908 58.2536 41.4545C58.69 38.6545 59.0536 35.8181 59.4173 33.0181C59.5991 31.5999 59.7809 30.1817 59.9627 28.7636C60.0718 27.8181 60.2536 26.7272 59.7445 25.8908C59.4536 25.4545 59.0173 25.1636 58.5082 25.0545C57.7082 24.8726 56.8355 25.0545 56.0718 25.3817C51.4173 27.1636 46.9082 29.309 42.6173 31.8545C41.8536 32.2908 41.1264 32.7636 40.6173 33.4545C39.9991 34.2908 39.8173 35.3817 39.6718 36.3999C36.7627 55.9636 33.8536 75.5272 30.9445 95.0545C30.7991 95.9999 30.69 97.0181 31.1264 97.8545C31.6355 98.7999 32.7991 98.909 33.7082 98.5817C34.9809 98.1454 36.1809 97.4545 37.4173 96.909C40.1445 95.6363 42.8718 94.3272 45.5264 92.9454C46.29 92.5454 47.0536 92.1454 47.7809 91.6363L47.9627 91.5999Z" fill="white"/>
<path id="Vector_3" d="M79.8553 26.1457H75.819C74.4008 26.1457 73.2008 27.2003 72.9826 28.5821L71.7099 37.0185C71.4553 38.6912 71.2735 40.4366 71.3462 42.1457C71.3826 43.2003 72.1099 43.9276 73.1644 43.673L80.9099 41.8548C82.219 41.6366 82.6917 40.473 82.6917 39.1639V28.9821C82.6917 27.4185 81.419 26.1094 79.819 26.1094L79.8553 26.1457Z" fill="white"/>
<path id="Vector_4" d="M78.0358 25.3088C80.8072 25.3088 83.0539 23.0621 83.0539 20.2906C83.0539 17.5192 80.8072 15.2725 78.0358 15.2725C75.2643 15.2725 73.0176 17.5192 73.0176 20.2906C73.0176 23.0621 75.2643 25.3088 78.0358 25.3088Z" fill="white"/>
</g>
</g>
<defs>
<linearGradient id="paint0_linear_4483_6893" x1="6.87272" y1="103.673" x2="110.909" y2="6.8" gradientUnits="userSpaceOnUse">
<stop stop-color="#58CAE1"/>
<stop offset="0.3" stop-color="#78DDDD"/>
<stop offset="0.5" stop-color="#85E4DC"/>
<stop offset="0.7" stop-color="#87E7D9"/>
<stop offset="0.8" stop-color="#90F3D3"/>
<stop offset="0.9" stop-color="#99FFCC"/>
</linearGradient>
<clipPath id="clip0_4483_6893">
<rect width="114" height="114" rx="57" fill="white"/>
</clipPath>
</defs>
</svg>
