<svg width="24" height="25" viewBox="0 0 24 25" fill="none" xmlns="http://www.w3.org/2000/svg">
<path fill-rule="evenodd" clip-rule="evenodd" d="M15.9416 14.429L19.883 10.5871L14.4361 9.7956L12.0002 4.85985L9.56422 9.7956L4.11729 10.5871L8.05873 14.429L7.12828 19.854L12.0002 17.2927L16.872 19.854L15.9416 14.429ZM12.0002 18.6484L7.328 21.1047C6.83915 21.3617 6.23452 21.1737 5.97752 20.6849C5.87518 20.4902 5.83987 20.2673 5.87705 20.0505L6.76935 14.848L2.98949 11.1635C2.59401 10.778 2.58591 10.1449 2.97141 9.74943C3.12492 9.59194 3.32607 9.48946 3.5437 9.45783L8.76734 8.69879L11.1034 3.96537C11.3478 3.47012 11.9475 3.26678 12.4427 3.5112C12.6399 3.60853 12.7996 3.76816 12.8969 3.96537L15.233 8.69879L20.4566 9.45783C21.0032 9.53725 21.3818 10.0447 21.3024 10.5912C21.2708 10.8089 21.1683 11.01 21.0108 11.1635L17.231 14.848L18.1233 20.0505C18.2166 20.5948 17.851 21.1118 17.3067 21.2052C17.09 21.2423 16.867 21.207 16.6723 21.1047L12.0002 18.6484Z" fill="#292222"/>
</svg>
