<svg width="24" height="24" viewBox="0 0 24 24" fill="none" xmlns="http://www.w3.org/2000/svg">
<path fill-rule="evenodd" clip-rule="evenodd" d="M15.9414 14.2806L19.8828 10.4387L14.4359 9.64721L12 4.71146L9.56404 9.64721L4.11711 10.4387L8.05854 14.2806L7.1281 19.7056L12 17.1443L16.8719 19.7056L15.9414 14.2806ZM12 18.5L7.32781 20.9563C6.83897 21.2133 6.23434 21.0254 5.97734 20.5365C5.875 20.3418 5.83969 20.1189 5.87686 19.9021L6.76917 14.6996L2.98931 11.0151C2.59382 10.6296 2.58573 9.99652 2.97123 9.60104C3.12474 9.44355 3.32588 9.34106 3.54352 9.30944L8.76716 8.5504L11.1032 3.81698C11.3477 3.32173 11.9473 3.11839 12.4425 3.36281C12.6398 3.46014 12.7994 3.61977 12.8967 3.81698L15.2328 8.5504L20.4564 9.30944C21.003 9.38886 21.3817 9.8963 21.3022 10.4428C21.2706 10.6605 21.1681 10.8616 21.0107 11.0151L17.2308 14.6996L18.1231 19.9021C18.2165 20.4465 17.8509 20.9634 17.3065 21.0568C17.0898 21.094 16.8668 21.0586 16.6721 20.9563L12 18.5Z" fill="#727A7A"/>
</svg>
