<svg width="24" height="25" viewBox="0 0 24 25" fill="none" xmlns="http://www.w3.org/2000/svg">
<path fill-rule="evenodd" clip-rule="evenodd" d="M12.5505 13.2024V4.72726L14.465 6.64182L15.2434 5.8634L12.6487 3.26869C12.2905 2.91044 11.7096 2.91044 11.3514 3.26869L8.75666 5.8634L9.53507 6.64182L11.4496 4.72727V13.2024H12.5505ZM15.6696 8.34029H18.2382V19.8991H5.76198L5.76198 8.34029H8.33061V7.23945H5.57754C5.07142 7.23945 4.66113 7.65128 4.66113 8.15297L4.66113 20.0865C4.66113 20.591 5.07296 21 5.57466 21H18.4255C18.93 21 19.339 20.5882 19.339 20.0865V8.15297C19.339 7.64845 18.927 7.23945 18.4226 7.23945H15.6696V8.34029Z" fill="#292222"/>
</svg>
