<svg width="24" height="24" viewBox="0 0 24 24" fill="none" xmlns="http://www.w3.org/2000/svg">
<path fill-rule="evenodd" clip-rule="evenodd" d="M12.6 13.5L12.6 4.26151L14.687 6.34853L15.5355 5.5L12.7071 2.67157C12.3166 2.28105 11.6834 2.28105 11.2929 2.67157L8.46447 5.5L9.31299 6.34853L11.4 4.26153V13.5H12.6ZM16 8.2H18.8V20.8H5.2L5.2 8.2H8V7H4.99896C4.44725 7 4 7.44892 4 7.99581L4 21.0042C4 21.5542 4.44892 22 4.99581 22H19.0042C19.5542 22 20 21.5511 20 21.0042V7.99581C20 7.44584 19.5509 7 19.001 7H16V8.2Z" fill="#727A7A"/>
</svg>
