<svg width="9" height="9" viewBox="0 0 9 9" fill="none" xmlns="http://www.w3.org/2000/svg">
<path d="M4.5 9C5.74263 9 6.86763 8.49632 7.68197 7.68197C8.49632 6.86763 9 5.74263 9 4.5C9 3.25737 8.49632 2.13237 7.68197 1.31802C6.86763 0.50368 5.74263 0 4.5 0C3.25737 0 2.13237 0.50368 1.31802 1.31802C0.50368 2.13237 0 3.25737 0 4.5C0 5.74263 0.50368 6.86763 1.31802 7.68197C2.13237 8.49632 3.25737 9 4.5 9Z" fill="#00B1A2"/>
<path d="M4.5 7.03125L2.53125 5.9625V4.275L1.40625 3.65625L4.5 1.96875L7.59375 3.65625V5.90625H7.03125V3.96562L6.46875 4.275V5.9625L4.5 7.03125ZM4.5 6.39141L5.90625 5.63203V4.57031L4.5 5.34375L3.09375 4.57031V5.63203L4.5 6.39141Z" fill="#EEF7F6"/>
</svg>
