<svg width="24" height="24" viewBox="0 0 24 24" fill="none" xmlns="http://www.w3.org/2000/svg">
<path fill-rule="evenodd" clip-rule="evenodd" d="M12 17.8C16.0343 17.8 19.6862 15.5499 21.6479 12C19.6862 8.45013 16.0343 6.2 12 6.2C7.96568 6.2 4.31378 8.45013 2.35213 12C4.31378 15.5499 7.96568 17.8 12 17.8ZM12 5C16.8078 5 20.9721 7.84763 23 12C20.9721 16.1524 16.8078 19 12 19C7.19221 19 3.02794 16.1524 1 12C3.02794 7.84763 7.19221 5 12 5ZM12 14.8C13.5464 14.8 14.8 13.5464 14.8 12C14.8 10.4536 13.5464 9.2 12 9.2C10.4536 9.2 9.2 10.4536 9.2 12C9.2 13.5464 10.4536 14.8 12 14.8ZM12 16C9.79086 16 8 14.2091 8 12C8 9.79086 9.79086 8 12 8C14.2091 8 16 9.79086 16 12C16 14.2091 14.2091 16 12 16Z" fill="#599596"/>
</svg>
